Brian_90_01									
version=1									
nRows=105									
nColumns=10									
inDegrees=yes									
endheader									
time	ground_force_vx	ground_force_vy	ground_force_vz	ground_force_px	ground_force_py	ground_force_pz	ground_torque_x	ground_torque_y	ground_torque_z
9.765	-4.284755	123.292969	-6.195637	-0.219567	0	-0.60707	0.000002	-1.407405	-0.000002
9.766	-4.267441	123.292969	-6.369204	-0.219621	0	-0.607282	0.000007	-1.458921	-0.000001
9.767	-4.184226	123.68866	-6.097854	-0.219644	0	-0.607569	0.000003	-1.45579	-0.000002
9.768	-4.181968	124.204453	-6.075584	-0.218666	0	-0.606881	0.000005	-1.406787	-0.000002
9.769	-4.136685	124.166718	-6.309394	-0.219276	0	-0.606947	0.000008	-1.397967	0
9.77	-4.298987	123.60836	-6.280561	-0.221052	0	-0.607205	0.000005	-1.397289	-0.000002
9.771	-4.16173	123.684448	-6.310925	-0.221034	0	-0.606306	0.000004	-1.394197	-0.000002
9.772	-4.067525	123.809319	-6.183498	-0.220921	0	-0.604811	0.000004	-1.408269	-0.000002
9.773	-4.186633	123.452179	-6.128622	-0.220633	0	-0.60577	0.000003	-1.409254	-0.000002
9.774	-4.086009	123.491302	-6.199608	-0.219607	0	-0.606629	0.000008	-1.410705	0
9.775	-4.054767	123.650192	-6.158826	-0.219666	0	-0.606525	0.000004	-1.439416	-0.000002
9.776	-4.145921	123.648438	-6.058769	-0.220553	0	-0.606812	0.000008	-1.376706	0
9.777	-4.038191	123.05629	-6.178492	-0.220349	0	-0.606478	-0.000001	-1.364848	0
9.778	-4.262971	123.362007	-6.188117	-0.219869	0	-0.606159	0	-1.383147	-0.000002
9.779	-4.502453	123.414368	-6.615055	-0.220568	0	-0.606495	0.000005	-1.406146	-0.000002
9.78	-4.216112	123.131462	-6.817263	-0.220551	0	-0.606526	0.000001	-1.38523	-0.000001
9.781	-4.007139	122.108376	-6.363233	-0.219914	0	-0.606839	0.000004	-1.352465	-0.000001
9.782	-4.005469	122.522469	-6.258427	-0.219442	0	-0.607271	0	-1.392388	-0.000002
9.783	-4.210515	123.454758	-6.491856	-0.221153	0	-0.606146	0.000008	-1.425678	0
9.784	-4.121385	122.898018	-6.166442	-0.221335	0	-0.606268	0.000003	-1.372369	-0.000002
9.785	-4.113814	123.556908	-6.046182	-0.220554	0	-0.605223	0.000005	-1.376612	-0.000002
9.786	-4.228287	124.5606	-6.100829	-0.220531	0	-0.604601	0	-1.422362	-0.000001
9.787	-4.236977	124.13308	-6.176962	-0.220488	0	-0.606393	0.000006	-1.434111	-0.000001
9.788	-4.273963	122.666908	-6.137969	-0.219719	0	-0.607038	0.000008	-1.364304	-0.000002
9.789	-4.521488	122.24926	-6.120832	-0.220051	0	-0.606699	0	-1.37914	-0.000001
9.79	-4.631594	122.375443	-6.245392	-0.221616	0	-0.60638	0.000005	-1.369444	-0.000001
9.791	-4.350838	123.589073	-6.148896	-0.22093	0	-0.605948	0.000006	-1.309146	0
9.792	-4.383626	122.758415	-6.06504	-0.220905	0	-0.605591	0.000007	-1.388962	-0.000001
9.793	-4.252202	122.514137	-6.166636	-0.220942	0	-0.606442	0.000004	-1.415981	-0.000001
9.794	-4.056273	123.846901	-6.053049	-0.220623	0	-0.606767	-0.000001	-1.375046	-0.000001
9.795	-4.146438	123.42009	-6.184471	-0.220185	0	-0.606313	0.000003	-1.358117	-0.000002
9.796	-4.136159	123.130135	-6.231788	-0.219412	0	-0.606371	0.000004	-1.355893	0
9.797	-4.293485	123.487297	-6.166393	-0.220229	0	-0.60631	0.000002	-1.367348	-0.000003
9.798	-4.36099	123.255669	-6.248291	-0.220905	0	-0.605216	0	-1.378121	0
9.799	-4.178377	122.735535	-6.10041	-0.220786	0	-0.60573	0.000002	-1.434108	-0.000002
9.8	-4.000231	121.791595	-6.227973	-0.221486	0	-0.60654	0.000006	-1.448767	-0.000001
9.801	-4.066449	121.532845	-6.186611	-0.222074	0	-0.606211	0.000004	-1.419495	-0.000001
9.802	-4.335901	122.249313	-6.173861	-0.221429	0	-0.605217	0.000004	-1.387569	-0.000002
9.803	-4.113511	123.355911	-6.241909	-0.220055	0	-0.604788	0.000003	-1.396828	0
9.804	-3.923123	123.618187	-6.014182	-0.220374	0	-0.606952	0.000002	-1.389727	-0.000002
9.805	-4.009761	123.292969	-6.286281	-0.221225	0	-0.607121	0.000004	-1.333885	-0.000002
9.806	-4.110757	123.488693	-6.467848	-0.221387	0	-0.605308	-0.000002	-1.352099	-0.000002
9.807	-4.190942	121.698021	-6.341577	-0.2218	0	-0.605996	0.000005	-1.353983	-0.000001
9.808	-3.944619	121.822601	-6.34403	-0.221069	0	-0.605601	-0.000002	-1.276592	-0.000002
9.809	-3.934957	122.514915	-6.393007	-0.220288	0	-0.605623	0	-1.30978	-0.000002
9.81	-4.14824	123.220886	-6.236096	-0.221227	0	-0.605759	0.000004	-1.43857	-0.000001
9.811	-4.045275	123.97686	-6.319771	-0.221844	0	-0.605502	-0.000001	-1.465449	-0.000003
9.812	-4.168596	123.650223	-6.524781	-0.221643	0	-0.606093	0.000003	-1.439742	-0.000001
9.813	-4.126669	123.065025	-6.278642	-0.221739	0	-0.606772	0.000007	-1.43365	-0.000001
9.814	-4.019509	122.186142	-6.318932	-0.222118	0	-0.606528	0.000008	-1.369043	-0.000001
9.815	-4.002639	122.832077	-6.377313	-0.221057	0	-0.606452	0.000002	-1.293857	-0.000002
9.816	-3.967575	123.457504	-6.302474	-0.22051	0	-0.605933	0.000005	-1.352506	0
9.817	-4.349609	122.319168	-6.191379	-0.22103	0	-0.605898	0.000003	-1.412427	-0.000002
9.818	-4.246534	121.887573	-6.067322	-0.221237	0	-0.606913	0.000002	-1.387734	-0.000001
9.819	-4.163101	122.216637	-6.168002	-0.221897	0	-0.606871	0.000002	-1.387308	-0.000003
9.82	-4.318457	122.990837	-5.954701	-0.221612	0	-0.606645	0.000006	-1.419444	-0.000003
9.821	-4.129053	123.4561	-6.001244	-0.220495	0	-0.605843	0.000008	-1.362936	-0.000001
9.822	-3.959517	122.323219	-6.302091	-0.220657	0	-0.606501	0.000002	-1.320485	-0.000001
9.823	-3.919028	123.438721	-6.198518	-0.2212	0	-0.606609	0.000005	-1.357952	-0.000001
9.824	-4.213664	123.920639	-6.218786	-0.222109	0	-0.606559	0.000004	-1.429185	-0.000002
9.825	-4.264922	122.737656	-6.096393	-0.22205	0	-0.607601	0.000007	-1.414854	-0.000001
9.826	-4.142827	122.574219	-5.886621	-0.220906	0	-0.607096	0.000006	-1.394416	-0.000002
9.827	-4.136284	122.574219	-5.935971	-0.220972	0	-0.607225	0.000003	-1.360874	-0.000003
9.828	-3.998072	122.574219	-5.979531	-0.220857	0	-0.607891	0	-1.318105	0
9.829	-4.109695	123.347427	-6.027121	-0.220393	0	-0.608639	0.000001	-1.369859	-0.000001
9.83	-3.983307	122.849525	-6.021183	-0.220262	0	-0.607972	0.000003	-1.375611	-0.000001
9.831	-3.976595	121.086983	-6.075739	-0.220359	0	-0.607103	0.000005	-1.368179	-0.000003
9.832	-4.33201	121.389107	-6.156118	-0.220907	0	-0.606712	0.000004	-1.379661	-0.000002
9.833	-4.21624	122.023514	-6.158897	-0.221494	0	-0.606576	0.000005	-1.415412	0
9.834	-4.104395	122.243973	-6.014393	-0.221849	0	-0.607041	0.000004	-1.417786	-0.000002
9.835	-3.944162	121.996498	-6.036027	-0.221032	0	-0.606063	0.000004	-1.39257	-0.000001
9.836	-3.979941	121.884293	-6.112949	-0.221347	0	-0.605291	0.000008	-1.399224	-0.000002
9.837	-4.092614	121.830704	-6.264647	-0.221237	0	-0.607052	0.000002	-1.363433	0
9.838	-3.911071	121.693039	-6.239333	-0.220723	0	-0.607216	-0.000003	-1.373948	-0.000002
9.839	-4.067994	121.47345	-6.069327	-0.221212	0	-0.606175	-0.000002	-1.42187	-0.000002
9.84	-4.083893	122.295837	-6.166667	-0.220948	0	-0.605798	0.000008	-1.421586	-0.000002
9.841	-3.96879	122.716644	-6.302536	-0.221489	0	-0.606451	0.000006	-1.396512	-0.000002
9.842	-3.960585	122.794846	-6.101702	-0.22168	0	-0.607208	-0.000001	-1.373729	-0.000001
9.843	-3.820707	122.52446	-5.941222	-0.221736	0	-0.60659	0.000003	-1.394496	-0.000002
9.844	-3.689261	121.666801	-6.03278	-0.221753	0	-0.606146	0.000003	-1.475755	-0.000001
9.845	-3.741686	120.732109	-6.071961	-0.220872	0	-0.606772	0.000002	-1.471001	-0.000001
9.846	-3.97167	121.59948	-6.1186	-0.221067	0	-0.607454	0.000002	-1.366092	-0.000002
9.847	-4.145976	122.162743	-5.966	-0.22203	0	-0.607552	0.000008	-1.315816	-0.000001
9.848	-3.942747	120.157578	-5.796778	-0.221276	0	-0.60719	0	-1.342108	-0.000002
9.849	-3.879043	120.906258	-5.799468	-0.221935	0	-0.606436	0.000006	-1.404451	-0.000001
9.85	-4.203125	122.764091	-6.089708	-0.222918	0	-0.607474	0.000004	-1.434312	0
9.851	-4.178432	122.739899	-6.197026	-0.222049	0	-0.60696	0.000006	-1.393941	-0.000002
9.852	-3.817005	122.194786	-6.074156	-0.222069	0	-0.606385	0.000006	-1.40127	0
9.853	-3.649007	122.052917	-6.076139	-0.221975	0	-0.60722	0.000001	-1.334389	-0.000001
9.854	-3.695047	121.262611	-6.07334	-0.221233	0	-0.607061	0.000006	-1.303719	-0.000001
9.855	-3.881598	120.806831	-6.215875	-0.221104	0	-0.606384	-0.000001	-1.428228	-0.000001
9.856	-3.867416	121.525688	-6.297779	-0.222065	0	-0.605691	0.000009	-1.449382	-0.000002
9.857	-3.933348	120.904144	-6.254384	-0.222533	0	-0.605335	0.000006	-1.429877	0
9.858	-4.053418	121.210503	-6.204849	-0.222738	0	-0.605722	0.000005	-1.42551	-0.000002
9.859	-4.057033	122.027496	-5.969397	-0.22285	0	-0.606506	0.000005	-1.400222	-0.000002
9.86	-4.10176	121.859375	-6.281512	-0.222617	0	-0.606377	0.000003	-1.375862	-0.000002
9.861	-3.957472	121.477173	-6.369359	-0.222007	0	-0.606292	0.000003	-1.417675	-0.000002
9.862	-3.736687	121.337875	-6.269922	-0.223111	0	-0.606403	0.000002	-1.405837	-0.000003
9.863	-3.613109	121.889313	-6.63858	-0.22463	0	-0.605381	0.000006	-1.348902	-0.000001
9.864	-3.759473	121.461807	-6.516317	-0.224271	0	-0.605659	0	-1.372772	-0.000002
9.865	-3.921116	121.164154	-6.063348	-0.223365	0	-0.606539	-0.000002	-1.368364	-0.000001
9.866	-3.874481	121.498169	-6.134826	-0.22335	0	-0.605406	0.000003	-1.367005	-0.000003
9.867	-3.976655	121.309502	-6.346762	-0.223205	0	-0.605422	0.000006	-1.37868	-0.000001
9.868	-4.153537	121.331047	-6.537246	-0.223329	0	-0.606143	0.000005	-1.428381	-0.000001
9.869	-3.911571	121.692413	-6.615394	-0.22343	0	-0.605411	0.000008	-1.399805	-0.000001
